<svg display="none" width="0" height="0" version="1.1" xmlns="http://www.w3.org/2000/svg" xmlns:xlink="http://www.w3.org/1999/xlink">
<defs>
<symbol id="icon-replay" viewBox="0 0 1243 1024">
	<title>replay</title>
	<path class="path1" d="M534.841 18.625c-285.872 0-518.536 223.033-518.536 499.342 0 270.331 223.141 490.674 502.027 499.099l56.514 1.707v-150.022l-53.030-1.767c-197.416-6.578-353.628-161.3-353.628-349.018 0-192.355 163.65-349.26 366.653-349.26 174.495 0 323.335 116.919 358.794 276.75l53.555-66.738h-243.651l265.568 348.203 265.47-348.203h-244.48l53.789 44.083c-46.791-233.592-259.892-404.177-509.045-404.177v0z"></path>
</symbol>
<symbol id="icon-sphere" viewBox="0 0 1024 1024">
	<title>sphere</title>
	<path class="path1" d="M27.483 505.080c0-36.219 3.886-72.25 11.544-107.157 48.257-220.261 243.501-380.119 464.234-380.119 262.314 0 475.755 218.599 475.755 487.277 0 268.654-213.441 487.253-475.755 487.253-262.337 0-475.778-218.599-475.778-487.253v0zM503.261 41.215c-210.126 0-395.998 152.179-441.923 361.835-7.292 33.222-10.995 67.544-10.995 102.030 0 255.754 203.177 463.841 452.918 463.841 249.719 0 452.895-208.087 452.895-463.841 0-255.778-203.177-463.865-452.895-463.865v0 0z"></path>
	<path class="path2" d="M71.945 353.416l-8.915-21.539c295.484-128.158 590.762-128.135 877.696 0.047l-9.144 21.446c-281.014-125.512-570.211-125.466-859.637 0.047z"></path>
	<path class="path3" d="M498.643 775.326c-146.668 0-292.215-32.051-435.728-96.154l9.144-21.446c280.968 125.466 570.188 125.512 859.637-0.047l8.915 21.539c-147.673 64.056-295.37 96.107-441.968 96.107z"></path>
	<path class="path4" d="M44.628 494.825h914.386v23.412h-914.386v-23.412z"></path>
	<path class="path5" d="M671.348 955.061l-20.939-9.365c122.551-287.759 122.528-583.969-0.046-880.413l21.031-9.131c125.157 302.578 125.134 605.016-0.046 898.909z"></path>
	<path class="path6" d="M332.248 954.944c-125.157-302.555-125.134-604.993 0.046-898.909l20.939 9.365c-122.528 287.782-122.528 584.016 0.046 880.413l-21.031 9.131z"></path>
	<path class="path7" d="M501.821 26.582h22.86v959.898h-22.86v-959.898z"></path>
</symbol>
<symbol id="icon-cylinder" viewBox="0 0 1095 1024">
	<title>cylinder</title>
	<path class="path1" d="M45.502 179.28h20.845v687.927h-20.845v-687.927z"></path>
	<path class="path2" d="M1046.071 179.28h20.845v687.927h-20.845v-687.927z"></path>
	<path class="path3" d="M556.209 315.511c-247.62 0-510.791-48.37-510.791-138.015s263.171-138.037 510.791-138.037c247.62 0 510.791 48.391 510.791 138.037s-263.171 138.015-510.791 138.015v0 0zM556.209 61.128c-288.643 0-489.779 61.312-489.779 116.367 0 55.034 201.135 116.346 489.779 116.346s489.779-61.312 489.779-116.346c0-55.056-201.135-116.367-489.779-116.367v0 0z"></path>
	<path class="path4" d="M556.209 1003.438c-247.62 0-510.791-48.37-510.791-138.015s263.171-138.037 510.791-138.037c247.62 0 510.791 48.391 510.791 138.037s-263.171 138.015-510.791 138.015v0 0zM556.209 749.056c-288.643 0-489.779 61.312-489.779 116.367 0 55.034 201.135 116.346 489.779 116.346s489.779-61.312 489.779-116.346c0-55.056-201.135-116.367-489.779-116.367v0 0z"></path>
	<path class="path5" d="M274.799 71.791h20.845v687.927h-20.845v-687.927z"></path>
	<path class="path6" d="M816.774 71.791h20.845v687.927h-20.845v-687.927z"></path>
	<path class="path7" d="M545.786 308.266h20.845v687.927h-20.845v-687.927z"></path>
</symbol>
<symbol id="icon-plane" viewBox="0 0 1271 1024">
	<title>plane</title>
	<path class="path1" d="M1234.615 936.379l-1166.173-179.799 29.93 34.898v-741.672l-40.691 34.898 1166.173 179.799-29.93-34.898v741.672l40.691-34.898zM1223.854 1006.175l40.691 6.274v-813.127l-1236.794-190.687v813.127l1196.103 184.414z"></path>
</symbol>
<symbol id="icon-muted" viewBox="0 0 1024 1024">
	<title>muted</title>
	<path class="path1" d="M716.8 102.4l-460.812 274.61h-204.788v377.922h219.592l446.008 265.79v-918.322z"></path>
	<path class="path2" fill="currentColor" d="M95.656 204.267l778.383 778.383 108.612-108.612-832.689-832.689-108.612 108.612 54.306 54.306z"></path>
</symbol>
<symbol id="icon-volume" viewBox="0 0 1024 1024">
	<title>volume</title>
	<path class="path1" d="M716.8 102.4l-460.812 274.61h-204.788v377.922h219.592l446.008 265.79v-918.322z"></path>
</symbol>
<symbol id="icon-gear" viewBox="0 0 1024 1024">
	<title>gear</title>
	<path class="path1" d="M884.063 499.369c0-18.198-1.641-36.010-4.064-53.589l117.812-68.851-143.497-251.642-117.774 68.754c-27.802-21.926-58.505-40.182-91.708-53.725v-137.451h-287.012v137.451c-33.145 13.542-63.887 31.798-91.651 53.725l-117.774-68.754-143.516 251.642 117.812 68.851c-2.462 17.58-4.103 35.391-4.103 53.589 0 18.217 1.641 35.99 4.103 53.531l-117.85 68.87 143.554 251.7 117.774-68.832c27.764 21.965 58.486 40.163 91.651 53.783v137.412h287.012v-137.412c33.203-13.62 63.906-31.856 91.708-53.783l117.774 68.832 143.497-251.7-117.812-68.87c2.423-17.541 4.064-35.314 4.064-53.531zM706.171 504.771c0 111.415-90.309 201.697-201.697 201.697-111.361 0-201.697-90.282-201.697-201.697 0-111.388 90.336-201.697 201.697-201.697 111.388 0 201.697 90.309 201.697 201.697z"></path>
</symbol>
<symbol id="icon-pause" viewBox="0 0 555 1024">
	<title>pause</title>
	<path class="path1" d="M0 115.81v792.381c0 47.128 38.205 85.333 85.333 85.333s85.333-38.205 85.333-85.333v-792.381c0-47.128-38.205-85.333-85.333-85.333s-85.333 38.205-85.333 85.333v0z"></path>
	<path class="path2" d="M384 115.81v792.381c0 47.128 38.205 85.333 85.333 85.333s85.333-38.205 85.333-85.333v-792.381c0-47.128-38.205-85.333-85.333-85.333s-85.333 38.205-85.333 85.333v0z"></path>
</symbol>
<symbol id="icon-headset" viewBox="0 0 2013 1024">
	<title>headset</title>
	<path class="path1" d="M1775.592 922.869h-401.666c-91.583 0-165.694-73.253-165.694-163.158v-75.275h-402.551v74.936c0 90.118-73.983 163.158-165.694 163.158h-401.324c-91.583 0-165.694-73.253-165.694-163.158v-523.265c0-90.118 73.983-163.158 165.694-163.158h1536.928c91.583 0 165.694 73.253 165.694 163.158v523.265c0 90.287-74.153 163.497-165.694 163.497v0zM1775.592 993.49c130.342 0 236.314-104.623 236.314-234.117v-523.265c0-129.093-105.911-233.779-236.314-233.779h-1536.928c-130.512 0-236.314 104.454-236.314 233.779v523.265c0 129.093 105.911 233.779 236.314 233.779h401.324c130.512 0 236.314-104.454 236.314-233.779v-39.626l-35.31 35.31h331.93l-35.31-35.31v39.965c0 129.093 105.911 233.779 236.314 233.779h401.666z"></path>
</symbol>
<symbol id="icon-mouse" viewBox="0 0 691 1024">
	<title>mouse</title>
	<path class="path1" d="M32.623 366.010h622.236v-47.628h-622.236v47.628z"></path>
	<path class="path2" d="M631.718 365.265v311.962c0 165.264-130.603 298.934-291.529 298.934-161.457 0-292.149-133.579-292.149-298.934v-311.75c-0.192-165.32 130.445-299.146 291.529-299.146 161.457 0 292.149 133.579 292.149 298.934v0zM679.346 365.265c0-191.429-151.779-346.562-339.776-346.562-187.657 0-339.378 155.425-339.156 346.801v311.723c0 191.429 151.779 346.562 339.776 346.562 187.48 0 339.157-155.238 339.157-346.562v-311.962z"></path>
	<path class="path3" d="M309.581 57.947v299.262h47.628v-309.581h-47.628v10.319z"></path>
</symbol>
<symbol id="icon-minimize" viewBox="0 0 1081 1024">
	<title>minimize</title>
	<path class="path1" d="M233.327 0h113.778v310.222h-347.105v-113.778h290.216l-56.889 56.889v-253.333zM694.209 0h113.778v253.333l-56.889-56.889h290.216v113.778h-347.105v-310.222zM807.987 970.667h-113.778v-310.222h347.105v113.778h-290.216l56.889-56.889v253.333zM347.105 970.667h-113.778v-253.333l56.889 56.889h-290.216v-113.778h347.105v310.222z"></path>
</symbol>
<symbol id="icon-maximize" viewBox="0 0 1084 1024">
	<title>maximize</title>
	<path class="path1" d="M120.471 328.471h-120.471v-328.471h367.523v120.471h-307.287l60.235-60.235v268.235zM1042.332 328.471h-120.471v-268.235l60.235 60.235h-307.287v-120.471h367.523v328.471zM921.862 639.059h120.471v328.471h-367.523v-120.471h307.287l-60.235 60.235v-268.235zM0 639.059h120.471v268.235l-60.235-60.235h307.287v120.471h-367.523v-328.471z"></path>
</symbol>
<symbol id="icon-share" viewBox="0 0 1024 1024">
	<title>share</title>
	<path class="path1" d="M1022.83 859.575c0 90.163-73.092 163.255-163.255 163.255s-163.255-73.092-163.255-163.255c0-90.163 73.092-163.255 163.255-163.255s163.255 73.092 163.255 163.255z"></path>
	<path class="path2" d="M1022.83 163.255c0 90.163-73.092 163.255-163.255 163.255s-163.255-73.092-163.255-163.255c0-90.163 73.092-163.255 163.255-163.255s163.255 73.092 163.255 163.255z"></path>
	<path class="path3" d="M326.51 498.48c0 90.163-73.092 163.255-163.255 163.255s-163.255-73.092-163.255-163.255c0-90.163 73.092-163.255 163.255-163.255s163.255 73.092 163.255 163.255z"></path>
	<path class="path4" d="M155.891 472.709l753.026 367.275-40.808 83.67-753.026-367.275 40.808-83.67z"></path>
	<path class="path5" d="M115.083 467.621l753.026-367.275 40.808 83.67-753.026 367.275-40.808-83.67z"></path>
</symbol>
<symbol id="icon-vrideo" viewBox="0 0 4992 1024">
	<title>vrideo</title>
	<path class="path1" d="M630.143 243.108c-141.454 0-256.27 120.471-256.27 268.892s114.816 268.664 256.27 268.664c141.454 0 256.052-120.243 256.052-268.664s-114.598-268.892-256.052-268.892v0zM539.087 364.433l243.105 147.567-243.105 147.338v-294.905z"></path>
	<path class="path2" d="M4604.744 146.417c-56.66 0-108.244 9.938-154.689 30.16-46.438 20.222-86.31 48.607-119.359 84.948h1.538c-35.4 37.173-62.951 79.268-81.838 125.93-18.887 46.655-28.302 96.654-28.302 150.329 0.793 52.85 10.897 102.533 29.397 149.18 18.494 46.647 45.342 88.528 80.743 125.702h-1.538c33.048 36.334 72.921 64.726 119.359 84.948 46.445 20.222 98.029 30.16 154.689 30.16 56.653 0 108.244-9.938 154.682-30.16s86.612-48.614 120.454-84.948c33.849-36.341 60.592-78.178 79.865-125.237 19.273-47.067 28.744-96.794 28.744-149.644 0-53.675-9.738-103.674-29.397-150.329-19.673-46.662-46.473-88.756-80.307-125.93-33.842-36.341-73.757-64.726-119.801-84.948-46.037-20.222-97.586-30.16-154.239-30.16v0zM4604.744 256.464c36.98 0 71.208 7.227 102.684 22.101 31.469 14.866 58.57 35.125 81.396 60.313s40.505 55.296 53.101 89.552c12.596 34.263 19.090 70.516 19.090 109.354 0 38.809-6.495 75.496-19.090 109.354s-30.275 63.002-53.101 88.167c-22.819 25.187-49.927 45.446-81.396 60.32-31.476 14.866-65.703 22.329-102.684 22.329-36.987 0-70.983-7.463-102.466-22.329-31.483-14.874-58.584-35.133-81.403-60.32-22.819-25.165-40.715-54.309-53.318-88.167-12.589-33.858-18.866-70.545-18.866-109.354 0-38.838 6.277-75.091 18.866-109.354 12.603-34.256 30.5-64.365 53.318-89.552s49.92-45.446 81.403-60.313c31.483-14.874 65.479-22.101 102.466-22.101v0z"></path>
	<path class="path3" d="M3681.077 159.029v109.907h1.081v645.186h489.532v-109.907h-363.623v-212.403h274.616v-110.474h-274.616v-212.403h331.599v-109.907h-458.59z"></path>
	<path class="path4" d="M2988.572 159.081l1.095 755.108h206.687c46.423 0 92.363-7.463 138.007-22.329 45.644-14.874 86.879-37.881 123.094-68.836 36.201-30.956 65.556-69.978 87.981-117.871 22.418-47.892 33.568-104.426 33.568-169.667 0-65.249-11.093-121.731-33.133-169.21-22.032-47.48-50.812-86.627-86.226-117.178-35.414-30.558-75.554-53.064-120.019-67.916-44.472-14.859-89.217-22.101-134.061-22.101h-216.994zM3114.952 268.892h81.403c37.759 0 72.036 6.49 103.119 18.881 31.089 12.384 58.142 29.549 80.967 52.253 22.826 22.712 40.505 50.765 53.094 83.799 12.582 33.041 19.090 70.376 19.090 111.66 0 41.277-6.509 78.656-19.090 112.11-12.589 33.453-30.268 61.83-53.094 84.955-22.826 23.117-49.878 40.555-80.967 52.946-31.082 12.391-65.359 18.646-103.119 18.646h-81.403v-535.25z"></path>
	<path class="path5" d="M2727.521 159.029l1.081 755.093h126.457v-755.093h-127.538z"></path>
	<path class="path6" d="M1442.365 159.029l295.23 755.093h103.126l252.359-645.186h220.884c24.405 0.84 46.241 3.124 65.135 6.836 18.887 3.72 34.235 10.446 47.21 19.927 12.982 9.489 23.851 22.359 30.935 39.295s10.602 38.175 11.395 63.775c-1.573 35.508-12.203 63.333-31.476 83.143s-48.621 29.608-89.547 29.608h-231.198l0.548 402.601h126.443v-296.68h26.596l245.851 296.68h155.77c-16.528-21.467-35.499-45.004-57.538-70.612-22.032-25.607-44.465-51.34-67.297-78.583-22.826-27.243-45.707-54.596-68.919-81.434-23.219-26.838-44.605-52.673-63.499-77.441 25.192-5.79 45.286-12.34 60.241-19.36 14.948-7.028 27.151-13.901 35.822-20.502 24.37-19.81 44.1-43.988 60.241-72.888 16.141-28.908 24.124-62.25 23.338-100.227 0-33.866-6.256-65.374-18.451-95.099-12.203-29.718-30.738-56.276-55.902-78.583-22.847-18.999-51.668-33.696-86.296-44.415-34.621-10.726-74.529-15.949-119.401-15.949h-312.6l-210.577 544.392-215.463-544.392h-132.959z"></path>
	<path class="path7" d="M1256.678 560.99c-136.427 211.298-354.966 333.935-584.303 347.541v113.193c198.613-2.1 386.624-18.557 558.065-45.277 4.395-41.409 10.763-80.336 13.993-122.983 7.176-94.635 11.171-192.652 12.245-292.474z"></path>
	<path class="path8" d="M549.913 2.365c-184.788 3.654-359.466 20.23-520.165 45.277-4.395 41.417-10.756 80.329-13.993 122.983-7.176 94.724-11.171 192.203-12.245 291.855 64.18-99.033 148.658-182.213 247.838-242.29 106.805-64.711 221.34-98.709 336.472-105.244v-112.581c-12.617 0.125-25.381-0.25-37.907 0z"></path>
	<path class="path9" d="M672.375 2.365v113.193c229.035 13.857 447.967 136.258 584.303 346.922-1.074-99.652-5.062-197.131-12.245-291.855-3.23-42.64-9.598-81.574-13.993-122.983-171.441-26.72-359.452-43.177-558.065-45.277z"></path>
	<path class="path10" d="M3.511 560.99c1.074 99.822 5.076 197.838 12.245 292.474 3.237 42.662 9.598 81.566 13.993 122.983 171.596 26.742 359.326 43.207 558.072 45.277v-113.193c-114.844-6.63-229.969-40.724-336.472-105.236-99.194-60.092-183.651-143.242-247.838-242.305z"></path>
</symbol>
<symbol id="icon-dislike" viewBox="0 0 745 1024">
	<title>dislike</title>
	<path class="path1" d="M21.637 482.368c94.831 7.757 139.63 121.052 194.975 222.006 16.594 30.27 46.774 81.131 61.642 109.306 62.747 118.906 32.492 142.701 62.747 177.426 30.254 34.735 73.959 25.526 101.975-10.303 16.565-21.191 41.515-48.31 30.413-127.465s-106.988-208.034-70.944-226.779c234.382 8.134 254.558-13.146 254.558-13.146s133.104-67.203 34.055-151.212c94.811-108.641 0.945-112.46 0-137.768s72.397-72.802-44.142-141.129c52.669-110.888-84.037-147.841-84.037-147.841s-480.721 0-541.24 50.398z"></path>
</symbol>
<symbol id="icon-like" viewBox="0 0 780 1024">
	<title>like</title>
	<path class="path1" d="M0 555.814c99.347-8.126 146.279-126.816 204.259-232.578 17.385-31.712 49.001-84.994 64.578-114.511 65.734-124.569 34.040-149.496 65.734-185.875 31.695-36.389 77.48-26.742 106.83 10.793 17.353 22.2 43.492 50.61 31.862 133.535s-112.083 217.941-74.322 237.578c245.543-8.522 266.679 13.772 266.679 13.772s139.442 70.403 35.676 158.413c99.326 113.814 0.99 117.815 0 144.328s75.844 76.269-46.245 147.849c55.177 116.169-88.038 154.881-88.038 154.881s-503.613 0-567.013-52.797z"></path>
</symbol>
<symbol id="icon-watch-later" viewBox="0 0 1024 1024">
	<title>watch-later</title>
	<path class="path1" d="M504.829 0c-278.792 0-504.829 225.974-504.829 504.766 0 278.855 226.037 504.829 504.829 504.829 278.855 0 504.829-225.974 504.829-504.829 0-278.792-225.974-504.766-504.829-504.766v0zM755.287 634.949h-315.518v-378.622h63.103v315.518h252.415v63.104z"></path>
</symbol>
<symbol id="icon-vrtoggle" viewBox="0 0 1707 1024">
	<title>vrtoggle</title>
	<path class="path1" d="M1634.494 495.674c-17.88-18.206-442.107-446.026-809.085-446.026s-791.205 427.82-809.084 446.026c-6.862 7.004-10.235 16.107-10.116 25.163-0.119 9.056 3.254 18.182 10.116 25.187 17.88 18.206 442.107 446.002 809.084 446.002s791.205-427.796 809.085-446.002c6.862-7.004 10.234-16.131 10.115-25.187 0.119-9.056-3.253-18.159-10.115-25.163v0zM825.409 780.251c-144.25 0-261.194-116.146-261.194-259.413s116.944-259.413 261.194-259.413c144.251 0 261.194 116.146 261.194 259.413s-116.944 259.413-261.194 259.413v0z"></path>
</symbol>
<symbol id="icon-play" viewBox="0 0 819 1024">
	<title>play</title>
	<path class="path1" d="M0 43.469c0-41.719 30.689-55.922 68.183-31.535l688.8 447.716c37.494 24.367 37.494 64.265 0 88.633l-688.8 447.716c-37.494 24.386-68.183 10.183-68.183-31.535v-920.993z"></path>
</symbol>
</defs>
</svg>
